<svg xmlns="http://www.w3.org/2000/svg" xmlns:xlink="http://www.w3.org/1999/xlink" contentStyleType="text/css" height="633px" preserveAspectRatio="none" style="width:623px;height:633px;background:#FFFFFF;" version="1.1" viewBox="0 0 623 633" width="623px" zoomAndPan="magnify"><defs/><g><rect fill="#FFFFFF" height="29.1328" style="stroke:#181818;stroke-width:1.0;" width="10" x="27.1011" y="125.6953"/><rect fill="#FFFFFF" height="187.7969" style="stroke:#181818;stroke-width:1.0;" width="10" x="27.1011" y="392.7578"/><rect fill="#FFFFFF" height="29.1328" style="stroke:#181818;stroke-width:1.0;" width="10" x="133.1489" y="154.8281"/><rect fill="#FFFFFF" height="14" style="stroke:#181818;stroke-width:1.0;" width="10" x="133.1489" y="378.7578"/><rect fill="#FFFFFF" height="32.1328" style="stroke:#181818;stroke-width:1.0;" width="10" x="208.4663" y="216.0938"/><rect fill="#FFFFFF" height="29.1328" style="stroke:#181818;stroke-width:1.0;" width="10" x="208.4663" y="277.3594"/><rect fill="#FFFFFF" height="29.1328" style="stroke:#181818;stroke-width:1.0;" width="10" x="302.5723" y="67.4297"/><rect fill="#FFFFFF" height="32.1328" style="stroke:#181818;stroke-width:1.0;" width="10" x="302.5723" y="183.9609"/><rect fill="#FFFFFF" height="29.1328" style="stroke:#181818;stroke-width:1.0;" width="10" x="302.5723" y="248.2266"/><rect fill="#FFFFFF" height="72.2656" style="stroke:#181818;stroke-width:1.0;" width="10" x="302.5723" y="306.4922"/><rect fill="#FFFFFF" height="29.1328" style="stroke:#181818;stroke-width:1.0;" width="10" x="302.5723" y="421.8906"/><rect fill="#FFFFFF" height="239.0625" style="stroke:#181818;stroke-width:1.0;" width="10" x="421.062" y="125.6953"/><rect fill="#FFFFFF" height="80.2656" style="stroke:#181818;stroke-width:1.0;" width="10" x="421.062" y="509.2891"/><rect fill="#FFFFFF" height="21.1328" style="stroke:#181818;stroke-width:1.0;" width="10" x="527.3599" y="46.2969"/><rect fill="#FFFFFF" height="29.1328" style="stroke:#181818;stroke-width:1.0;" width="10" x="527.3599" y="96.5625"/><rect fill="#FFFFFF" height="57.1328" style="stroke:#181818;stroke-width:1.0;" width="10" x="527.3599" y="364.7578"/><rect fill="#FFFFFF" height="58.2656" style="stroke:#181818;stroke-width:1.0;" width="10" x="527.3599" y="451.0234"/><line style="stroke:#181818;stroke-width:0.5;stroke-dasharray:5.0,5.0;" x1="32" x2="32" y1="36.2969" y2="598.5547"/><line style="stroke:#181818;stroke-width:0.5;stroke-dasharray:5.0,5.0;" x1="138.0518" x2="138.0518" y1="36.2969" y2="598.5547"/><line style="stroke:#181818;stroke-width:0.5;stroke-dasharray:5.0,5.0;" x1="213.2461" x2="213.2461" y1="36.2969" y2="598.5547"/><line style="stroke:#181818;stroke-width:0.5;stroke-dasharray:5.0,5.0;" x1="306.6865" x2="306.6865" y1="36.2969" y2="598.5547"/><line style="stroke:#181818;stroke-width:0.5;stroke-dasharray:5.0,5.0;" x1="425.458" x2="425.458" y1="36.2969" y2="598.5547"/><line style="stroke:#181818;stroke-width:0.5;stroke-dasharray:5.0,5.0;" x1="531.666" x2="531.666" y1="36.2969" y2="598.5547"/><rect fill="#E2E2F0" height="30.2969" rx="2.5" ry="2.5" style="stroke:#181818;stroke-width:0.5;" width="54.2021" x="5" y="5"/><text fill="#000000" font-family="sans-serif" font-size="14" lengthAdjust="spacing" textLength="40.2021" x="12" y="24.9951">MQTT</text><rect fill="#E2E2F0" height="30.2969" rx="2.5" ry="2.5" style="stroke:#181818;stroke-width:0.5;" width="54.2021" x="5" y="597.5547"/><text fill="#000000" font-family="sans-serif" font-size="14" lengthAdjust="spacing" textLength="40.2021" x="12" y="617.5498">MQTT</text><rect fill="#E2E2F0" height="30.2969" rx="2.5" ry="2.5" style="stroke:#181818;stroke-width:0.5;" width="72.1943" x="102.0518" y="5"/><text fill="#000000" font-family="sans-serif" font-size="14" lengthAdjust="spacing" textLength="58.1943" x="109.0518" y="24.9951">Provider</text><rect fill="#E2E2F0" height="30.2969" rx="2.5" ry="2.5" style="stroke:#181818;stroke-width:0.5;" width="72.1943" x="102.0518" y="597.5547"/><text fill="#000000" font-family="sans-serif" font-size="14" lengthAdjust="spacing" textLength="58.1943" x="109.0518" y="617.5498">Provider</text><rect fill="#E2E2F0" height="30.2969" rx="2.5" ry="2.5" style="stroke:#181818;stroke-width:0.5;" width="58.4404" x="184.2461" y="5"/><text fill="#000000" font-family="sans-serif" font-size="14" lengthAdjust="spacing" textLength="44.4404" x="191.2461" y="24.9951">Parser</text><rect fill="#E2E2F0" height="30.2969" rx="2.5" ry="2.5" style="stroke:#181818;stroke-width:0.5;" width="58.4404" x="184.2461" y="597.5547"/><text fill="#000000" font-family="sans-serif" font-size="14" lengthAdjust="spacing" textLength="44.4404" x="191.2461" y="617.5498">Parser</text><rect fill="#E2E2F0" height="30.2969" rx="2.5" ry="2.5" style="stroke:#181818;stroke-width:0.5;" width="109.7715" x="252.6865" y="5"/><text fill="#000000" font-family="sans-serif" font-size="14" lengthAdjust="spacing" textLength="95.7715" x="259.6865" y="24.9951">Config Broker</text><rect fill="#E2E2F0" height="30.2969" rx="2.5" ry="2.5" style="stroke:#181818;stroke-width:0.5;" width="109.7715" x="252.6865" y="597.5547"/><text fill="#000000" font-family="sans-serif" font-size="14" lengthAdjust="spacing" textLength="95.7715" x="259.6865" y="617.5498">Config Broker</text><rect fill="#E2E2F0" height="30.2969" rx="2.5" ry="2.5" style="stroke:#181818;stroke-width:0.5;" width="107.208" x="372.458" y="5"/><text fill="#000000" font-family="sans-serif" font-size="14" lengthAdjust="spacing" textLength="93.208" x="379.458" y="24.9951">Version futex</text><rect fill="#E2E2F0" height="30.2969" rx="2.5" ry="2.5" style="stroke:#181818;stroke-width:0.5;" width="107.208" x="372.458" y="597.5547"/><text fill="#000000" font-family="sans-serif" font-size="14" lengthAdjust="spacing" textLength="93.208" x="379.458" y="617.5498">Version futex</text><rect fill="#E2E2F0" height="30.2969" rx="2.5" ry="2.5" style="stroke:#181818;stroke-width:0.5;" width="85.3877" x="489.666" y="5"/><text fill="#000000" font-family="sans-serif" font-size="14" lengthAdjust="spacing" textLength="71.3877" x="496.666" y="24.9951">Consumer</text><rect fill="#E2E2F0" height="30.2969" rx="2.5" ry="2.5" style="stroke:#181818;stroke-width:0.5;" width="85.3877" x="489.666" y="597.5547"/><text fill="#000000" font-family="sans-serif" font-size="14" lengthAdjust="spacing" textLength="71.3877" x="496.666" y="617.5498">Consumer</text><rect fill="#FFFFFF" height="29.1328" style="stroke:#181818;stroke-width:1.0;" width="10" x="27.1011" y="125.6953"/><rect fill="#FFFFFF" height="187.7969" style="stroke:#181818;stroke-width:1.0;" width="10" x="27.1011" y="392.7578"/><rect fill="#FFFFFF" height="29.1328" style="stroke:#181818;stroke-width:1.0;" width="10" x="133.1489" y="154.8281"/><rect fill="#FFFFFF" height="14" style="stroke:#181818;stroke-width:1.0;" width="10" x="133.1489" y="378.7578"/><rect fill="#FFFFFF" height="32.1328" style="stroke:#181818;stroke-width:1.0;" width="10" x="208.4663" y="216.0938"/><rect fill="#FFFFFF" height="29.1328" style="stroke:#181818;stroke-width:1.0;" width="10" x="208.4663" y="277.3594"/><rect fill="#FFFFFF" height="29.1328" style="stroke:#181818;stroke-width:1.0;" width="10" x="302.5723" y="67.4297"/><rect fill="#FFFFFF" height="32.1328" style="stroke:#181818;stroke-width:1.0;" width="10" x="302.5723" y="183.9609"/><rect fill="#FFFFFF" height="29.1328" style="stroke:#181818;stroke-width:1.0;" width="10" x="302.5723" y="248.2266"/><rect fill="#FFFFFF" height="72.2656" style="stroke:#181818;stroke-width:1.0;" width="10" x="302.5723" y="306.4922"/><rect fill="#FFFFFF" height="29.1328" style="stroke:#181818;stroke-width:1.0;" width="10" x="302.5723" y="421.8906"/><rect fill="#FFFFFF" height="239.0625" style="stroke:#181818;stroke-width:1.0;" width="10" x="421.062" y="125.6953"/><rect fill="#FFFFFF" height="80.2656" style="stroke:#181818;stroke-width:1.0;" width="10" x="421.062" y="509.2891"/><rect fill="#FFFFFF" height="21.1328" style="stroke:#181818;stroke-width:1.0;" width="10" x="527.3599" y="46.2969"/><rect fill="#FFFFFF" height="29.1328" style="stroke:#181818;stroke-width:1.0;" width="10" x="527.3599" y="96.5625"/><rect fill="#FFFFFF" height="57.1328" style="stroke:#181818;stroke-width:1.0;" width="10" x="527.3599" y="364.7578"/><rect fill="#FFFFFF" height="58.2656" style="stroke:#181818;stroke-width:1.0;" width="10" x="527.3599" y="451.0234"/><polygon fill="#181818" points="323.5723,63.4297,313.5723,67.4297,323.5723,71.4297,319.5723,67.4297" style="stroke:#181818;stroke-width:1.0;"/><line style="stroke:#181818;stroke-width:1.0;" x1="317.5723" x2="531.3599" y1="67.4297" y2="67.4297"/><text fill="#000000" font-family="sans-serif" font-size="13" lengthAdjust="spacing" textLength="21.3472" x="329.5723" y="62.3638">get</text><polygon fill="#181818" points="515.3599,92.5625,525.3599,96.5625,515.3599,100.5625,519.3599,96.5625" style="stroke:#181818;stroke-width:1.0;"/><line style="stroke:#181818;stroke-width:1.0;" x1="307.5723" x2="521.3599" y1="96.5625" y2="96.5625"/><text fill="#000000" font-family="sans-serif" font-size="13" lengthAdjust="spacing" textLength="137.1729" x="314.5723" y="91.4966">(version, data, futex)</text><polygon fill="#181818" points="442.062,121.6953,432.062,125.6953,442.062,129.6953,438.062,125.6953" style="stroke:#181818;stroke-width:1.0;"/><line style="stroke:#181818;stroke-width:1.0;" x1="436.062" x2="531.3599" y1="125.6953" y2="125.6953"/><text fill="#000000" font-family="sans-serif" font-size="13" lengthAdjust="spacing" textLength="27.3076" x="448.062" y="120.6294">wait</text><polygon fill="#181818" points="121.1489,150.8281,131.1489,154.8281,121.1489,158.8281,125.1489,154.8281" style="stroke:#181818;stroke-width:1.0;"/><line style="stroke:#181818;stroke-width:1.0;" x1="32.1011" x2="127.1489" y1="154.8281" y2="154.8281"/><text fill="#000000" font-family="sans-serif" font-size="13" lengthAdjust="spacing" textLength="77.0479" x="39.1011" y="149.7622">(topic, json)</text><polygon fill="#181818" points="290.5723,179.9609,300.5723,183.9609,290.5723,187.9609,294.5723,183.9609" style="stroke:#181818;stroke-width:1.0;"/><line style="stroke:#181818;stroke-width:1.0;" x1="138.1489" x2="296.5723" y1="183.9609" y2="183.9609"/><text fill="#000000" font-family="sans-serif" font-size="13" lengthAdjust="spacing" textLength="19.8682" x="145.1489" y="178.895">set</text><polygon fill="#181818" points="229.4663,212.0938,219.4663,216.0938,229.4663,220.0938,225.4663,216.0938" style="stroke:#181818;stroke-width:1.0;"/><line style="stroke:#181818;stroke-width:1.0;" x1="223.4663" x2="306.5723" y1="216.0938" y2="216.0938"/><text fill="#000000" font-family="sans-serif" font-size="13" lengthAdjust="spacing" textLength="20.5601" x="235.4663" y="211.0278">init</text><path d="M317,196.9609 L317,221.9609 L396,221.9609 L396,206.9609 L386,196.9609 L317,196.9609 " fill="#FEFFDD" style="stroke:#181818;stroke-width:0.5;"/><path d="M386,196.9609 L386,206.9609 L396,206.9609 L386,196.9609 " fill="#FEFFDD" style="stroke:#181818;stroke-width:0.5;"/><text fill="#000000" font-family="sans-serif" font-size="13" lengthAdjust="spacing" textLength="58.9063" x="323" y="214.0278">first time</text><polygon fill="#181818" points="290.5723,244.2266,300.5723,248.2266,290.5723,252.2266,294.5723,248.2266" style="stroke:#181818;stroke-width:1.0;"/><line style="stroke:#181818;stroke-width:1.0;" x1="213.4663" x2="296.5723" y1="248.2266" y2="248.2266"/><text fill="#000000" font-family="sans-serif" font-size="13" lengthAdjust="spacing" textLength="50.4194" x="220.4663" y="243.1606">register</text><polygon fill="#181818" points="229.4663,273.3594,219.4663,277.3594,229.4663,281.3594,225.4663,277.3594" style="stroke:#181818;stroke-width:1.0;"/><line style="stroke:#181818;stroke-width:1.0;" x1="223.4663" x2="306.5723" y1="277.3594" y2="277.3594"/><text fill="#000000" font-family="sans-serif" font-size="13" lengthAdjust="spacing" textLength="36.334" x="235.4663" y="272.2935">parse</text><polygon fill="#181818" points="290.5723,302.4922,300.5723,306.4922,290.5723,310.4922,294.5723,306.4922" style="stroke:#181818;stroke-width:1.0;"/><line style="stroke:#181818;stroke-width:1.0;" x1="213.4663" x2="296.5723" y1="306.4922" y2="306.4922"/><text fill="#000000" font-family="sans-serif" font-size="13" lengthAdjust="spacing" textLength="29.2817" x="220.4663" y="301.4263">data</text><polygon fill="#181818" points="409.062,331.625,419.062,335.625,409.062,339.625,413.062,335.625" style="stroke:#181818;stroke-width:1.0;"/><line style="stroke:#181818;stroke-width:1.0;" x1="312.5723" x2="415.062" y1="335.625" y2="335.625"/><text fill="#000000" font-family="sans-serif" font-size="13" lengthAdjust="spacing" textLength="69.3989" x="319.5723" y="330.5591">version++</text><polygon fill="#181818" points="515.3599,360.7578,525.3599,364.7578,515.3599,368.7578,519.3599,364.7578" style="stroke:#181818;stroke-width:1.0;"/><line style="stroke:#181818;stroke-width:1.0;" x1="426.062" x2="521.3599" y1="364.7578" y2="364.7578"/><text fill="#000000" font-family="sans-serif" font-size="13" lengthAdjust="spacing" textLength="34.125" x="433.062" y="359.6919">wake</text><polygon fill="#181818" points="154.1489,374.7578,144.1489,378.7578,154.1489,382.7578,150.1489,378.7578" style="stroke:#181818;stroke-width:1.0;"/><line style="stroke:#181818;stroke-width:1.0;" x1="148.1489" x2="306.5723" y1="378.7578" y2="378.7578"/><polygon fill="#181818" points="48.1011,388.7578,38.1011,392.7578,48.1011,396.7578,44.1011,392.7578" style="stroke:#181818;stroke-width:1.0;"/><line style="stroke:#181818;stroke-width:1.0;" x1="42.1011" x2="137.1489" y1="392.7578" y2="392.7578"/><polygon fill="#181818" points="323.5723,417.8906,313.5723,421.8906,323.5723,425.8906,319.5723,421.8906" style="stroke:#181818;stroke-width:1.0;"/><line style="stroke:#181818;stroke-width:1.0;" x1="317.5723" x2="531.3599" y1="421.8906" y2="421.8906"/><text fill="#000000" font-family="sans-serif" font-size="13" lengthAdjust="spacing" textLength="21.3472" x="329.5723" y="416.8247">get</text><polygon fill="#181818" points="515.3599,447.0234,525.3599,451.0234,515.3599,455.0234,519.3599,451.0234" style="stroke:#181818;stroke-width:1.0;"/><line style="stroke:#181818;stroke-width:1.0;" x1="307.5723" x2="521.3599" y1="451.0234" y2="451.0234"/><text fill="#000000" font-family="sans-serif" font-size="13" lengthAdjust="spacing" textLength="137.1729" x="314.5723" y="445.9575">(version, data, futex)</text><polygon fill="#181818" points="610.7227,476.1563,620.7227,480.1563,610.7227,484.1563,614.7227,480.1563" style="stroke:#181818;stroke-width:1.0;"/><line style="stroke:#181818;stroke-width:1.0;" x1="537.3599" x2="616.7227" y1="480.1563" y2="480.1563"/><text fill="#000000" font-family="sans-serif" font-size="13" lengthAdjust="spacing" textLength="61.3628" x="544.3599" y="475.0903">configure</text><polygon fill="#181818" points="442.062,505.2891,432.062,509.2891,442.062,513.2891,438.062,509.2891" style="stroke:#181818;stroke-width:1.0;"/><line style="stroke:#181818;stroke-width:1.0;" x1="436.062" x2="531.3599" y1="509.2891" y2="509.2891"/><text fill="#000000" font-family="sans-serif" font-size="13" lengthAdjust="spacing" textLength="27.3076" x="448.062" y="504.2231">wait</text><line style="stroke:#181818;stroke-width:1.0;" x1="37.1011" x2="79.1011" y1="538.4219" y2="538.4219"/><line style="stroke:#181818;stroke-width:1.0;" x1="79.1011" x2="79.1011" y1="538.4219" y2="551.4219"/><line style="stroke:#181818;stroke-width:1.0;" x1="38.1011" x2="79.1011" y1="551.4219" y2="551.4219"/><polygon fill="#181818" points="48.1011,547.4219,38.1011,551.4219,48.1011,555.4219,44.1011,551.4219" style="stroke:#181818;stroke-width:1.0;"/><text fill="#000000" font-family="sans-serif" font-size="13" lengthAdjust="spacing" textLength="34.6328" x="44.1011" y="533.356">sleep</text><polygon fill="#181818" points="126.1489,576.5547,136.1489,580.5547,126.1489,584.5547,130.1489,580.5547" style="stroke:#181818;stroke-width:1.0;"/><line style="stroke:#181818;stroke-width:1.0;" x1="32.1011" x2="132.1489" y1="580.5547" y2="580.5547"/><text fill="#000000" font-family="sans-serif" font-size="13" lengthAdjust="spacing" textLength="77.0479" x="39.1011" y="575.4888">(topic, json)</text><!--SRC=[pLInKiCm3Dtp5RekmBNyG0O6k6CYTmKAkovHWcXh1zj9-NmSsqdg4jehB6I85UN9VjAJV07B3GhpaZt0Ctqq97A2Wh5Ik8LIAdWYB39Ax5EZCfnpRT6GFQvMaMEfPCi5gTY9IX-uPdTIb5p1hP9hKZD07SmOzKfAinHGDeO-7Ug-ioAGtKatMnkPO6wuHKEZgpVW-YRi3obKP9A2leF7-40bHDZO7fF2PUifBQ10WmlFx6f_ln1yWetBmvBP8K-p6Jm-u_7RrRnxTTlqzRR4ZAmvNy2xbYBYu_1Z-A1GRuorIK77fHcmFvIc8-2qJO65pKD8Yr1SlHcRMSbA6p2yfQFL2StXbqWdHHLhO__jC_BeqtpgRltbmPsoPntg94eXjCPydYHUtgXpThYE27bT9zfmRBkX_aVpc1BKYJwbv45R_Dy1II5tLqIZxAqpbScVfgcV7xVQljyGrUSErHS0]--></g></svg>